<?xml version="1.0" encoding="utf-8"?>
<!-- Generator: Adobe Illustrator 16.0.0, SVG Export Plug-In . SVG Version: 6.00 Build 0)  -->
<!DOCTYPE svg PUBLIC "-//W3C//DTD SVG 1.1//EN" "http://www.w3.org/Graphics/SVG/1.1/DTD/svg11.dtd">
<svg version="1.1" id="Layer_1" xmlns="http://www.w3.org/2000/svg" xmlns:xlink="http://www.w3.org/1999/xlink" x="0px" y="0px"
	 width="6912px" height="3456px" viewBox="0 0 6912 3456" enable-background="new 0 0 6912 3456" xml:space="preserve">
<path fill-rule="evenodd" clip-rule="evenodd" fill="#E57A25" d="M3468.456,1809.237c-1.451,0-2.901,0-4.353,0
	c0.006-15.185,0.018-30.37,0.014-45.555c-0.001-2.492,0.279-4.943,0.787-7.384c2.997-14.406,16.188-25.188,30.891-25.136
	c15.548,0.056,31.095,0.013,46.643,0.013c0,1.36,0,2.72,0,4.08c-0.208,0.057-0.26,0.213-0.266,0.406
	c-0.082,2.799-0.564,5.555-1.155,8.271c-4.905,22.566-16.996,40.229-36.398,52.777c-9.565,6.188-20.041,10.074-31.334,11.758
	C3471.676,1808.708,3470.016,1808.68,3468.456,1809.237z"/>
<path fill-rule="evenodd" clip-rule="evenodd" fill="#E57A25" d="M3453.225,1646.043c1.45,0,2.901,0,4.352,0
	c-0.006,14.902-0.008,29.805-0.022,44.708c-0.001,1.535-0.057,3.061-0.211,4.6c-0.825,8.232-4.335,15.115-10.438,20.607
	c-6.028,5.423-13.138,8.187-21.324,8.161c-15.446-0.048-30.893-0.014-46.338-0.014c0-1.36,0-2.72,0-4.08
	c0.208-0.058,0.257-0.214,0.266-0.406c0.168-3.699,0.818-7.339,1.734-10.901c6.499-25.274,21.461-43.716,44.936-55.152
	c7.023-3.421,14.462-5.602,22.208-6.75C3449.998,1646.576,3451.661,1646.6,3453.225,1646.043z"/>
<path fill-rule="evenodd" clip-rule="evenodd" fill="#E57A25" d="M3379.243,1735.256c0-1.36,0-2.72,0-4.08
	c15.49,0,30.981,0.007,46.471-0.008c1.993-0.003,3.951,0.16,5.916,0.531c14.604,2.766,25.692,15.505,25.886,30.796
	c0.199,15.579,0.055,31.161,0.061,46.742c-1.45,0-2.901,0-4.352,0c-0.057-0.208-0.215-0.257-0.406-0.266
	c-3.699-0.173-7.335-0.837-10.905-1.733c-21.751-5.456-38.699-17.639-50.657-36.62c-5.871-9.32-9.577-19.485-11.235-30.397
	C3379.771,1738.566,3379.804,1736.861,3379.243,1735.256z"/>
<path fill-rule="evenodd" clip-rule="evenodd" fill="#FCC42F" d="M3464.104,1646.043c1.361,0,2.72,0,4.08,0
	c0.101,0.267,0.335,0.255,0.559,0.269c4.113,0.261,8.154,0.996,12.125,2.041c20.656,5.432,36.908,17.07,48.638,34.916
	c6.414,9.757,10.425,20.467,12.168,32.03c0.251,1.665,0.203,3.381,0.765,4.998c0,1.27,0,2.539,0,3.808
	c-15.412,0-30.824-0.01-46.237,0.007c-3.523,0.004-6.984-0.449-10.271-1.691c-12.688-4.797-20.005-13.899-21.557-27.436
	c-0.527-4.598-0.18-9.237-0.201-13.857C3464.114,1669.432,3464.122,1657.737,3464.104,1646.043z"/>
<path fill-rule="evenodd" clip-rule="evenodd" fill="#FFFFFF" d="M3464.636,1619.245c0.024,15.765,0.015,31.53,0.092,47.294
	c0.029,6.228-0.436,12.482,0.269,18.681c2.073,18.249,11.85,30.518,28.806,36.984c4.391,1.674,9.016,2.286,13.724,2.28
	c20.595-0.023,41.189-0.01,61.783-0.01c0,3.178,0,6.355,0,9.532c-20.775,0-41.55,0.059-62.325-0.016
	c-19.646-0.07-37.271,14.463-41.278,33.882c-0.678,3.291-1.053,6.595-1.051,9.954c0.006,20.471-0.011,40.94-0.019,61.41
	c-2.907,0-5.814,0-8.721,0c-0.008-21.003,0.185-42.009-0.081-63.01c-0.261-20.613-15.076-37.786-34.591-41.515
	c-2.625-0.501-5.241-0.72-7.903-0.717c-20.699,0.021-41.398,0.011-62.097,0.011c0-3.177,0-6.354,0-9.532
	c20.639,0,41.28-0.045,61.919,0.019c10.938,0.035,20.438-3.69,28.493-11.001c8.154-7.403,12.846-16.681,13.947-27.779
	c0.205-2.073,0.28-4.131,0.281-6.2c0.021-20.089,0.023-40.179,0.031-60.268C3458.821,1619.245,3461.729,1619.245,3464.636,1619.245z
	"/>
<path fill-rule="evenodd" clip-rule="evenodd" fill="#FFFFFF" d="M3542.438,1720.296c-0.562-1.617-0.514-3.333-0.765-4.998
	c-1.743-11.563-5.754-22.273-12.168-32.03c-11.729-17.845-27.981-29.483-48.638-34.916c-3.971-1.045-8.012-1.78-12.125-2.041
	c-0.224-0.014-0.458-0.002-0.559-0.269c24.389,0,48.777,0.007,73.166-0.026c0.931-0.001,1.114,0.183,1.113,1.114
	C3542.431,1671.52,3542.438,1695.907,3542.438,1720.296z"/>
<path fill-rule="evenodd" clip-rule="evenodd" fill="#FFFFFF" d="M3453.225,1646.043c-1.563,0.557-3.227,0.533-4.838,0.771
	c-7.746,1.148-15.184,3.329-22.208,6.75c-23.475,11.436-38.437,29.878-44.936,55.152c-0.916,3.563-1.566,7.203-1.734,10.901
	c-0.009,0.192-0.058,0.349-0.266,0.406c0-24.276,0.007-48.551-0.026-72.827c-0.002-0.979,0.201-1.182,1.181-1.181
	C3404.674,1646.05,3428.949,1646.043,3453.225,1646.043z"/>
<path fill-rule="evenodd" clip-rule="evenodd" fill="#FFFFFF" d="M3379.243,1735.256c0.561,1.605,0.527,3.311,0.778,4.965
	c1.658,10.912,5.364,21.077,11.235,30.397c11.958,18.981,28.906,31.164,50.657,36.62c3.57,0.896,7.206,1.561,10.905,1.733
	c0.191,0.009,0.35,0.058,0.406,0.266c-24.276,0-48.551-0.008-72.827,0.026c-0.979,0.001-1.183-0.201-1.181-1.182
	C3379.25,1783.807,3379.243,1759.53,3379.243,1735.256z"/>
<path fill-rule="evenodd" clip-rule="evenodd" fill="#FFFFFF" d="M3468.456,1809.237c1.56-0.558,3.22-0.529,4.828-0.769
	c11.293-1.684,21.769-5.57,31.334-11.758c19.402-12.549,31.493-30.211,36.398-52.777c0.591-2.717,1.073-5.473,1.155-8.271
	c0.006-0.193,0.058-0.35,0.266-0.406c0,24.274-0.008,48.551,0.026,72.826c0.001,0.98-0.201,1.183-1.182,1.182
	C3517.007,1809.229,3492.732,1809.237,3468.456,1809.237z"/>
</svg>
